<?xml version="1.0" encoding="UTF-8"?>
<!DOCTYPE svg PUBLIC "-//W3C//DTD SVG 1.1//EN" "http://www.w3.org/Graphics/SVG/1.1/DTD/svg11.dtd">
<svg xmlns="http://www.w3.org/2000/svg" version="1.1" width="1616px" height="1598px" style="shape-rendering:geometricPrecision; text-rendering:geometricPrecision; image-rendering:optimizeQuality; fill-rule:evenodd; clip-rule:evenodd" xmlns:xlink="http://www.w3.org/1999/xlink">
<g><path style="opacity:1" fill="#ecebec" d="M -0.5,-0.5 C 0.166667,-0.5 0.833333,-0.5 1.5,-0.5C 1.33333,529.5 1.5,1059.5 2,1589.5C 3.20159,1593.12 5.36825,1594.79 8.5,1594.5C 9.49162,1594.33 10.1583,1594.66 10.5,1595.5C 10.0618,1595.43 9.72845,1595.6 9.5,1596C 10.7375,1596.23 11.7375,1596.73 12.5,1597.5C 8.16667,1597.5 3.83333,1597.5 -0.5,1597.5C -0.5,1064.83 -0.5,532.167 -0.5,-0.5 Z"/></g>
<g><path style="opacity:1" fill="#e6e6e6" d="M 1.5,-0.5 C 2.16667,-0.5 2.83333,-0.5 3.5,-0.5C 3.33333,529.5 3.5,1059.5 4,1589.5C 4.65999,1591.32 5.82665,1592.66 7.5,1593.5C 7.5,1594.17 7.83333,1594.5 8.5,1594.5C 5.36825,1594.79 3.20159,1593.12 2,1589.5C 1.5,1059.5 1.33333,529.5 1.5,-0.5 Z"/></g>
<g><path style="opacity:1" fill="#ece4e0" d="M 3.5,-0.5 C 538.167,-0.5 1072.83,-0.5 1607.5,-0.5C 1607.67,529.5 1607.5,1059.5 1607,1589.5C 1606.34,1591.32 1605.17,1592.66 1603.5,1593.5C 1603.17,1593.5 1602.83,1593.5 1602.5,1593.5C 1070.83,1593.5 539.167,1593.5 7.5,1593.5C 5.82665,1592.66 4.65999,1591.32 4,1589.5C 3.5,1059.5 3.33333,529.5 3.5,-0.5 Z"/></g>
<g><path style="opacity:1" fill="#e5e5e5" d="M 1607.5,-0.5 C 1610.17,-0.5 1612.83,-0.5 1615.5,-0.5C 1615.5,12.5 1615.5,25.5 1615.5,38.5C 1613.5,38.5 1611.5,38.5 1609.5,38.5C 1609.5,67.5 1609.5,96.5 1609.5,125.5C 1609.5,500.167 1609.5,874.833 1609.5,1249.5C 1609.5,1301.83 1609.5,1354.17 1609.5,1406.5C 1611.5,1406.5 1613.5,1406.5 1615.5,1406.5C 1615.5,1419.5 1615.5,1432.5 1615.5,1445.5C 1613.5,1445.5 1611.5,1445.5 1609.5,1445.5C 1609.67,1493.5 1609.5,1541.5 1609,1589.5C 1608.42,1591 1607.58,1592.33 1606.5,1593.5C 1605.31,1594.65 1604.31,1594.65 1603.5,1593.5C 1605.17,1592.66 1606.34,1591.32 1607,1589.5C 1607.5,1059.5 1607.67,529.5 1607.5,-0.5 Z"/></g>
<g><path style="opacity:1" fill="#dad9d9" d="M 1615.5,38.5 C 1615.5,67.5 1615.5,96.5 1615.5,125.5C 1613.5,125.5 1611.5,125.5 1609.5,125.5C 1609.5,96.5 1609.5,67.5 1609.5,38.5C 1611.5,38.5 1613.5,38.5 1615.5,38.5 Z"/></g>
<g><path style="opacity:1" fill="#d3d0cd" d="M 1609.5,125.5 C 1611.5,125.5 1613.5,125.5 1615.5,125.5C 1615.5,500.167 1615.5,874.833 1615.5,1249.5C 1613.5,1249.5 1611.5,1249.5 1609.5,1249.5C 1609.5,874.833 1609.5,500.167 1609.5,125.5 Z"/></g>
<g><path style="opacity:1" fill="#a3826d" d="M 346.5,986.5 C 347.823,976.992 347.823,967.325 346.5,957.5C 345.893,957.624 345.56,957.957 345.5,958.5C 344.178,958.33 343.011,958.663 342,959.5C 341.613,974.405 336.947,987.738 328,999.5C 324.054,1003.44 319.554,1006.61 314.5,1009C 306.81,1009.39 301.644,1005.89 299,998.5C 297.89,992.574 298.556,986.908 301,981.5C 309.945,970.017 321.279,961.683 335,956.5C 333.58,940.51 325.746,928.677 311.5,921C 304.394,917.447 297.061,914.447 289.5,912C 270.948,907.49 252.281,903.49 233.5,900C 215.444,896.427 198.444,890.093 182.5,881C 160.151,863.255 157.651,843.088 175,820.5C 204.088,791.032 238.921,771.532 279.5,762C 285.446,760.71 291.446,759.877 297.5,759.5C 295.961,733.756 285.794,712.089 267,694.5C 266.116,692.359 266.616,690.693 268.5,689.5C 289.16,707.821 300.494,730.821 302.5,758.5C 317.607,757.238 332.107,759.571 346,765.5C 350.788,736.927 362.788,711.927 382,690.5C 391.667,680.167 401.333,669.833 411,659.5C 434.281,628.357 437.281,595.357 420,560.5C 410.752,547.588 399.252,537.088 385.5,529C 366.243,518.792 347.409,507.958 329,496.5C 310.262,506.787 291.429,516.953 272.5,527C 259.838,534.323 249.005,543.823 240,555.5C 230.548,571.323 227.881,588.323 232,606.5C 239.133,633.299 255.967,650.466 282.5,658C 298.99,659.544 314.324,656.044 328.5,647.5C 299.326,624.475 291.159,595.475 304,560.5C 317.476,539.538 334.976,535.371 356.5,548C 370.913,561.91 376.079,578.743 372,598.5C 366.782,618.439 355.948,634.606 339.5,647C 342.915,648.917 346.581,650.25 350.5,651C 357.598,651.749 364.598,651.249 371.5,649.5C 371.5,651.167 371.5,652.833 371.5,654.5C 358.462,658.126 345.962,656.792 334,650.5C 289.602,675.073 255.602,665.073 232,620.5C 217.135,580.095 227.968,548.595 264.5,526C 284.253,515.04 304.087,504.206 324,493.5C 324.667,492.833 324.667,492.167 324,491.5C 314.642,482.417 311.309,471.417 314,458.5C 316.455,449.068 321.289,441.234 328.5,435C 332.274,433.817 335.441,434.651 338,437.5C 346.437,449.885 348.771,463.218 345,477.5C 342.124,483.259 338.291,488.259 333.5,492.5C 348.51,502.676 364.176,511.842 380.5,520C 429.963,545.77 446.129,585.27 429,638.5C 425.131,647.019 420.465,655.019 415,662.5C 406.029,673.405 396.362,683.739 386,693.5C 367.579,713.678 356.079,737.344 351.5,764.5C 351.57,765.772 351.903,766.938 352.5,768C 387.135,787.177 405.135,816.677 406.5,856.5C 405.605,872.748 403.105,888.748 399,904.5C 395.85,914.761 392.85,925.094 390,935.5C 389.202,937.259 389.369,938.926 390.5,940.5C 451.602,929.027 513.269,923.694 575.5,924.5C 575.714,926.144 575.38,927.644 574.5,929C 522.635,929.976 470.968,933.643 419.5,940C 408.54,941.707 397.707,943.873 387,946.5C 385.285,952.074 383.952,957.74 383,963.5C 382.601,982.533 382.935,1001.53 384,1020.5C 381.887,1033.62 378.22,1046.29 373,1058.5C 372.333,1064.17 372.333,1069.83 373,1075.5C 379.152,1092.04 378.486,1108.37 371,1124.5C 368.181,1132.14 364.348,1139.14 359.5,1145.5C 355.103,1140.71 352.269,1135.04 351,1128.5C 348.683,1117.26 347.016,1105.93 346,1094.5C 345.5,1058.5 345.667,1022.5 346.5,986.5 Z"/></g>
<g><path style="opacity:1" fill="#ebe2de" d="M 329.5,439.5 C 331.722,439.178 333.556,439.845 335,441.5C 340.652,451.105 342.985,461.439 342,472.5C 339.97,479.589 335.803,484.922 329.5,488.5C 322.075,483.824 318.408,476.99 318.5,468C 318.701,457.108 322.368,447.608 329.5,439.5 Z"/></g>
<g><path style="opacity:1" fill="#ece4e0" d="M 327.5,545.5 C 354.002,545.166 367.669,558.333 368.5,585C 366.653,610.665 354.986,630.499 333.5,644.5C 307.371,625.962 297.871,600.962 305,569.5C 308.983,558.023 316.483,550.023 327.5,545.5 Z"/></g>
<g><path style="opacity:1" fill="#535353" d="M 612.5,847.5 C 606.833,847.5 601.167,847.5 595.5,847.5C 595.667,791.832 595.5,736.166 595,680.5C 594.283,681.044 593.783,681.711 593.5,682.5C 573.772,736.848 553.939,791.181 534,845.5C 530.767,846.786 527.267,847.453 523.5,847.5C 519.733,847.453 516.233,846.786 513,845.5C 493.59,792.433 474.09,739.433 454.5,686.5C 454.291,685.078 453.791,683.745 453,682.5C 452.5,737.499 452.333,792.499 452.5,847.5C 450.167,847.5 447.833,847.5 445.5,847.5C 445.5,784.833 445.5,722.167 445.5,659.5C 451.758,659.19 457.924,659.524 464,660.5C 485.667,719.5 507.333,778.5 529,837.5C 550.863,778.91 572.53,720.244 594,661.5C 599.874,659.57 606.04,658.903 612.5,659.5C 612.5,722.167 612.5,784.833 612.5,847.5 Z"/></g>
<g><path style="opacity:1" fill="#545454" d="M 728.5,658.5 C 763.107,656.881 788.607,671.214 805,701.5C 819.837,732.411 821.504,764.078 810,796.5C 792.569,838.963 761.403,855.796 716.5,847C 689.414,835.744 672.081,815.911 664.5,787.5C 654.067,749.809 660.567,715.475 684,684.5C 696.288,671.279 711.122,662.613 728.5,658.5 Z"/></g>
<g><path style="opacity:1" fill="#535252" d="M 974.5,810.5 C 974.783,811.289 975.283,811.956 976,812.5C 976.5,761.501 976.667,710.501 976.5,659.5C 978.5,659.5 980.5,659.5 982.5,659.5C 982.5,722.167 982.5,784.833 982.5,847.5C 979.028,848.037 976.195,847.037 974,844.5C 940.488,787.472 906.988,730.472 873.5,673.5C 873.217,672.711 872.717,672.044 872,671.5C 871.5,730.166 871.333,788.832 871.5,847.5C 869.5,847.5 867.5,847.5 865.5,847.5C 865.5,784.833 865.5,722.167 865.5,659.5C 872.175,659.334 878.842,659.5 885.5,660C 915.556,709.947 945.223,760.114 974.5,810.5 Z"/></g>
<g><path style="opacity:1" fill="#8c8988" d="M 976.5,659.5 C 976.667,710.501 976.5,761.501 976,812.5C 975.283,811.956 974.783,811.289 974.5,810.5C 975.167,760.167 975.833,709.833 976.5,659.5 Z"/></g>
<g><path style="opacity:1" fill="#545454" d="M 1123.5,755.5 C 1099.83,755.5 1076.17,755.5 1052.5,755.5C 1052.5,783.833 1052.5,812.167 1052.5,840.5C 1083.66,841.498 1115,841.832 1146.5,841.5C 1146.5,843.5 1146.5,845.5 1146.5,847.5C 1109.17,847.5 1071.83,847.5 1034.5,847.5C 1034.5,784.833 1034.5,722.167 1034.5,659.5C 1070.17,659.5 1105.83,659.5 1141.5,659.5C 1141.5,661.833 1141.5,664.167 1141.5,666.5C 1111.83,666.5 1082.17,666.5 1052.5,666.5C 1052.5,693.833 1052.5,721.167 1052.5,748.5C 1076.17,748.5 1099.83,748.5 1123.5,748.5C 1123.5,750.833 1123.5,753.167 1123.5,755.5 Z"/></g>
<g><path style="opacity:1" fill="#525252" d="M 1265.5,666.5 C 1264.5,726.664 1264.17,786.998 1264.5,847.5C 1258.83,847.5 1253.17,847.5 1247.5,847.5C 1247.5,787.167 1247.5,726.833 1247.5,666.5C 1231.5,666.5 1215.5,666.5 1199.5,666.5C 1199.5,664.167 1199.5,661.833 1199.5,659.5C 1237.17,659.5 1274.83,659.5 1312.5,659.5C 1312.5,661.833 1312.5,664.167 1312.5,666.5C 1296.83,666.5 1281.17,666.5 1265.5,666.5 Z"/></g>
<g><path style="opacity:1" fill="#ece4e0" d="M 731.5,665.5 C 754.315,665.157 771.481,674.823 783,694.5C 801.644,727.023 804.644,761.023 792,796.5C 786.29,811.865 777.123,824.699 764.5,835C 743.282,847.964 723.615,845.964 705.5,829C 677.727,795.215 670.561,757.382 684,715.5C 690.645,696.199 702.479,681.033 719.5,670C 723.571,668.37 727.571,666.87 731.5,665.5 Z"/></g>
<g><path style="opacity:1" fill="#878583" d="M 873.5,673.5 C 872.833,731.5 872.167,789.5 871.5,847.5C 871.333,788.832 871.5,730.166 872,671.5C 872.717,672.044 873.217,672.711 873.5,673.5 Z"/></g>
<g><path style="opacity:1" fill="#94908e" d="M 612.5,847.5 C 606.69,848.49 600.69,848.823 594.5,848.5C 594.832,792.997 594.499,737.664 593.5,682.5C 593.783,681.711 594.283,681.044 595,680.5C 595.5,736.166 595.667,791.832 595.5,847.5C 601.167,847.5 606.833,847.5 612.5,847.5 Z"/></g>
<g><path style="opacity:1" fill="#dcd5d1" d="M 454.5,686.5 C 453.833,740.167 453.167,793.833 452.5,847.5C 452.333,792.499 452.5,737.499 453,682.5C 453.791,683.745 454.291,685.078 454.5,686.5 Z"/></g>
<g><path style="opacity:1" fill="#c5bfbc" d="M 1123.5,755.5 C 1100.34,756.498 1077.01,756.831 1053.5,756.5C 1053.5,784.5 1053.5,812.5 1053.5,840.5C 1053.17,840.5 1052.83,840.5 1052.5,840.5C 1052.5,812.167 1052.5,783.833 1052.5,755.5C 1076.17,755.5 1099.83,755.5 1123.5,755.5 Z"/></g>
<g><path style="opacity:1" fill="#ece4e0" d="M 303.5,763.5 C 317.959,762.557 331.959,764.557 345.5,769.5C 344.89,778.641 344.557,787.808 344.5,797C 346.902,848.802 347.902,900.636 347.5,952.5C 345.194,952.993 342.861,953.326 340.5,953.5C 337.479,937.312 328.812,925.146 314.5,917C 305.551,912.35 296.218,908.684 286.5,906C 267.467,902.127 248.467,898.127 229.5,894C 210.775,890.544 193.942,883.044 179,871.5C 164.688,854.907 165.022,838.574 180,822.5C 212.871,789.982 252.371,770.649 298.5,764.5C 299.801,781.301 295.801,796.635 286.5,810.5C 287,811.881 288,812.547 289.5,812.5C 291.628,811.946 293.128,810.613 294,808.5C 301.028,794.334 304.195,779.334 303.5,763.5 Z"/></g>
<g><path style="opacity:1" fill="#ece4e0" d="M 350.5,772.5 C 390.045,795.876 406.545,830.543 400,876.5C 395.122,898.677 389.622,920.677 383.5,942.5C 373.071,944.452 362.737,946.786 352.5,949.5C 352.77,898.308 351.77,847.141 349.5,796C 349.531,788.121 349.865,780.288 350.5,772.5 Z"/></g>
<g><path style="opacity:1" fill="#71706f" d="M 1052.5,840.5 C 1052.83,840.5 1053.17,840.5 1053.5,840.5C 1084.83,840.5 1116.17,840.5 1147.5,840.5C 1147.8,843.059 1147.47,845.393 1146.5,847.5C 1146.5,845.5 1146.5,843.5 1146.5,841.5C 1115,841.832 1083.66,841.498 1052.5,840.5 Z"/></g>
<g><path style="opacity:1" fill="#aba7a5" d="M 1265.5,666.5 C 1265.5,727.167 1265.5,787.833 1265.5,848.5C 1259.31,848.823 1253.31,848.49 1247.5,847.5C 1253.17,847.5 1258.83,847.5 1264.5,847.5C 1264.17,786.998 1264.5,726.664 1265.5,666.5 Z"/></g>
<g><path style="opacity:1" fill="#525252" d="M 677.5,902.5 C 679.5,902.5 681.5,902.5 683.5,902.5C 683.5,918.5 683.5,934.5 683.5,950.5C 681.5,950.5 679.5,950.5 677.5,950.5C 677.5,934.5 677.5,918.5 677.5,902.5 Z"/></g>
<g><path style="opacity:1" fill="#575757" d="M 1009.5,902.5 C 1011.5,902.5 1013.5,902.5 1015.5,902.5C 1015.5,918.5 1015.5,934.5 1015.5,950.5C 1013.83,950.5 1012.17,950.5 1010.5,950.5C 1010.66,949.127 1010.49,947.793 1010,946.5C 1008.79,948.049 1007.29,949.215 1005.5,950C 991.862,952.702 985.195,947.036 985.5,933C 986.79,916.941 994.623,912.441 1009,919.5C 1009.5,913.843 1009.67,908.176 1009.5,902.5 Z"/></g>
<g><path style="opacity:1" fill="#565656" d="M 654.5,904.5 C 656.5,904.5 658.5,904.5 660.5,904.5C 660.662,906.527 660.495,908.527 660,910.5C 658.333,911.833 656.667,911.833 655,910.5C 654.505,908.527 654.338,906.527 654.5,904.5 Z"/></g>
<g><path style="opacity:1" fill="#565656" d="M 1031.5,904.5 C 1033.5,904.5 1035.5,904.5 1037.5,904.5C 1037.66,906.527 1037.5,908.527 1037,910.5C 1035.33,911.833 1033.67,911.833 1032,910.5C 1031.5,908.527 1031.34,906.527 1031.5,904.5 Z"/></g>
<g><path style="opacity:1" fill="#5b5b5b" d="M 745.5,909.5 C 746.5,909.5 747.5,909.5 748.5,909.5C 748.198,912.059 748.532,914.393 749.5,916.5C 752.5,916.5 755.5,916.5 758.5,916.5C 758.5,918.167 758.5,919.833 758.5,921.5C 755.5,921.5 752.5,921.5 749.5,921.5C 749.334,928.841 749.5,936.174 750,943.5C 752.481,945.314 755.315,945.98 758.5,945.5C 758.5,947.167 758.5,948.833 758.5,950.5C 754.818,950.665 751.152,950.499 747.5,950C 746.333,948.833 745.167,947.667 744,946.5C 742.67,938.227 742.17,929.893 742.5,921.5C 741.167,921.5 739.833,921.5 738.5,921.5C 738.293,918.255 739.793,916.255 743,915.5C 743.566,913.277 744.4,911.277 745.5,909.5 Z"/></g>
<g><path style="opacity:1" fill="#94918f" d="M 745.5,909.5 C 746.568,908.566 747.901,908.232 749.5,908.5C 749.5,911.167 749.5,913.833 749.5,916.5C 748.532,914.393 748.198,912.059 748.5,909.5C 747.5,909.5 746.5,909.5 745.5,909.5 Z"/></g>
<g><path style="opacity:1" fill="#5b5b5b" d="M 914.5,909.5 C 915.5,909.5 916.5,909.5 917.5,909.5C 917.198,912.059 917.532,914.393 918.5,916.5C 921.5,916.5 924.5,916.5 927.5,916.5C 927.5,918.167 927.5,919.833 927.5,921.5C 924.5,921.5 921.5,921.5 918.5,921.5C 918.334,928.841 918.5,936.174 919,943.5C 921.481,945.314 924.315,945.98 927.5,945.5C 927.5,947.167 927.5,948.833 927.5,950.5C 923.818,950.665 920.152,950.499 916.5,950C 915.333,948.833 914.167,947.667 913,946.5C 911.67,938.227 911.17,929.893 911.5,921.5C 910.167,921.5 908.833,921.5 907.5,921.5C 907.293,918.255 908.793,916.255 912,915.5C 912.566,913.277 913.4,911.277 914.5,909.5 Z"/></g>
<g><path style="opacity:1" fill="#94918f" d="M 914.5,909.5 C 915.568,908.566 916.901,908.232 918.5,908.5C 918.5,911.167 918.5,913.833 918.5,916.5C 917.532,914.393 917.198,912.059 917.5,909.5C 916.5,909.5 915.5,909.5 914.5,909.5 Z"/></g>
<g><path style="opacity:1" fill="#555555" d="M 609.5,916.5 C 612.325,916.162 614.492,917.162 616,919.5C 620.71,916.557 625.877,915.724 631.5,917C 635.058,918.892 637.558,921.725 639,925.5C 640.098,932.385 639.431,939.051 637,945.5C 635.833,946.667 634.667,947.833 633.5,949C 627.333,951.389 621.5,950.889 616,947.5C 615.501,953.491 615.334,959.491 615.5,965.5C 613.5,965.5 611.5,965.5 609.5,965.5C 609.5,949.167 609.5,932.833 609.5,916.5 Z"/></g>
<g><path style="opacity:1" fill="#525252" d="M 654.5,916.5 C 656.5,916.5 658.5,916.5 660.5,916.5C 660.5,927.833 660.5,939.167 660.5,950.5C 658.5,950.5 656.5,950.5 654.5,950.5C 654.5,939.167 654.5,927.833 654.5,916.5 Z"/></g>
<g><path style="opacity:1" fill="#585858" d="M 711.5,915.5 C 717.005,915.278 721.505,917.278 725,921.5C 725.5,931.161 725.666,940.828 725.5,950.5C 723.833,950.5 722.167,950.5 720.5,950.5C 720.657,949.127 720.49,947.793 720,946.5C 715.215,950.373 709.715,951.54 703.5,950C 699.765,948.2 698.098,945.2 698.5,941C 698.753,934.08 702.42,930.413 709.5,930C 712.817,929.502 716.15,929.335 719.5,929.5C 719.78,926.728 719.113,924.228 717.5,922C 712.804,921.086 708.304,921.586 704,923.5C 702.212,921.996 701.712,920.329 702.5,918.5C 705.582,917.365 708.582,916.365 711.5,915.5 Z"/></g>
<g><path style="opacity:1" fill="#575757" d="M 781.5,915.5 C 794.371,915.37 800.371,921.704 799.5,934.5C 792.167,934.5 784.833,934.5 777.5,934.5C 777.161,938.987 778.827,942.487 782.5,945C 787.638,945.82 792.638,945.32 797.5,943.5C 798.466,945.396 798.799,947.396 798.5,949.5C 778.735,955.06 769.568,947.727 771,927.5C 772.963,922.044 776.463,918.044 781.5,915.5 Z"/></g>
<g><path style="opacity:1" fill="#585757" d="M 818.5,916.5 C 824.212,916.313 829.879,916.646 835.5,917.5C 835.714,919.144 835.38,920.644 834.5,922C 829.288,921.372 824.121,921.539 819,922.5C 818.175,924.701 818.675,926.534 820.5,928C 826.196,929.93 831.363,932.764 836,936.5C 837.493,946.841 832.993,951.508 822.5,950.5C 819.833,950.333 817.167,950.167 814.5,950C 812.396,948.164 812.062,945.998 813.5,943.5C 818.311,945.485 823.311,945.985 828.5,945C 831.167,942.667 831.167,940.333 828.5,938C 824.082,936.194 819.749,934.194 815.5,932C 812.735,929.005 811.902,925.505 813,921.5C 814.352,919.251 816.185,917.584 818.5,916.5 Z"/></g>
<g><path style="opacity:1" fill="#585757" d="M 878.5,916.5 C 884.212,916.313 889.879,916.646 895.5,917.5C 895.714,919.144 895.38,920.644 894.5,922C 889.288,921.372 884.121,921.539 879,922.5C 878.175,924.701 878.675,926.534 880.5,928C 886.196,929.93 891.363,932.764 896,936.5C 897.493,946.841 892.993,951.508 882.5,950.5C 879.833,950.333 877.167,950.167 874.5,950C 872.396,948.164 872.062,945.998 873.5,943.5C 878.311,945.485 883.311,945.985 888.5,945C 891.167,942.667 891.167,940.333 888.5,938C 884.082,936.194 879.749,934.194 875.5,932C 872.735,929.005 871.902,925.505 873,921.5C 874.352,919.251 876.185,917.584 878.5,916.5 Z"/></g>
<g><path style="opacity:1" fill="#5b5a5a" d="M 941.5,916.5 C 943.5,916.5 945.5,916.5 947.5,916.5C 947.334,925.173 947.5,933.84 948,942.5C 951.719,945.902 955.886,946.402 960.5,944C 961.701,943.097 962.535,941.931 963,940.5C 963.5,932.507 963.666,924.507 963.5,916.5C 965.833,916.5 968.167,916.5 970.5,916.5C 970.5,927.833 970.5,939.167 970.5,950.5C 968.5,950.5 966.5,950.5 964.5,950.5C 964.657,949.127 964.49,947.793 964,946.5C 961.307,949.857 957.807,951.191 953.5,950.5C 949.193,951.191 945.693,949.857 943,946.5C 941.551,936.605 941.051,926.605 941.5,916.5 Z"/></g>
<g><path style="opacity:1" fill="#525252" d="M 1031.5,916.5 C 1033.5,916.5 1035.5,916.5 1037.5,916.5C 1037.5,927.833 1037.5,939.167 1037.5,950.5C 1035.5,950.5 1033.5,950.5 1031.5,950.5C 1031.5,939.167 1031.5,927.833 1031.5,916.5 Z"/></g>
<g><path style="opacity:1" fill="#5a5959" d="M 1065.5,915.5 C 1082.16,916.457 1088.33,925.124 1084,941.5C 1082.5,945.667 1079.67,948.5 1075.5,950C 1064.43,953.107 1057.26,949.274 1054,938.5C 1051.52,927.457 1055.35,919.79 1065.5,915.5 Z"/></g>
<g><path style="opacity:1" fill="#e8e1dd" d="M 620.5,921.5 C 626.392,920.073 630.559,922.073 633,927.5C 634.702,934.245 633.202,940.078 628.5,945C 623.744,946.444 619.911,945.277 617,941.5C 615.607,936.905 615.274,932.239 616,927.5C 616.804,924.854 618.304,922.854 620.5,921.5 Z"/></g>
<g><path style="opacity:1" fill="#eae2de" d="M 792.5,926.5 C 792.5,927.5 792.5,928.5 792.5,929.5C 787.5,929.5 782.5,929.5 777.5,929.5C 778.5,922.348 782.5,919.848 789.5,922C 791.141,923.129 792.141,924.629 792.5,926.5 Z"/></g>
<g><path style="opacity:1" fill="#eae2de" d="M 996.5,921.5 C 999.187,921.336 1001.85,921.503 1004.5,922C 1006.67,922.833 1008.17,924.333 1009,926.5C 1009.67,931.167 1009.67,935.833 1009,940.5C 1008.22,942.286 1007.05,943.786 1005.5,945C 1001.09,946.262 997.257,945.428 994,942.5C 991.375,934.945 992.208,927.945 996.5,921.5 Z"/></g>
<g><path style="opacity:1" fill="#eae2de" d="M 1065.5,921.5 C 1071.44,920.069 1075.61,922.069 1078,927.5C 1078.67,931.5 1078.67,935.5 1078,939.5C 1075.65,945.095 1071.48,946.928 1065.5,945C 1063.19,943.891 1061.69,942.057 1061,939.5C 1060.33,935.167 1060.33,930.833 1061,926.5C 1062.02,924.313 1063.52,922.646 1065.5,921.5 Z"/></g>
<g><path style="opacity:1" fill="#938f8d" d="M 792.5,926.5 C 793.434,927.568 793.768,928.901 793.5,930.5C 787.974,930.821 782.64,930.488 777.5,929.5C 782.5,929.5 787.5,929.5 792.5,929.5C 792.5,928.5 792.5,927.5 792.5,926.5 Z"/></g>
<g><path style="opacity:1" fill="#e8e0dd" d="M 709.5,934.5 C 712.833,934.5 716.167,934.5 719.5,934.5C 719.844,943.649 715.51,947.149 706.5,945C 704.604,943.192 704.104,941.025 705,938.5C 706.397,936.93 707.897,935.596 709.5,934.5 Z"/></g>
<g><path style="opacity:1" fill="#ece3df" d="M 377.5,947.5 C 378.833,947.5 380.167,947.5 381.5,947.5C 378.72,957.462 377.387,967.629 377.5,978C 379.208,993.12 379.708,1008.29 379,1023.5C 376.875,1034.54 373.542,1045.21 369,1055.5C 366.587,1067.13 367.587,1078.46 372,1089.5C 372.406,1106.54 368.406,1122.54 360,1137.5C 357.749,1133.08 356.083,1128.42 355,1123.5C 353.342,1114.24 352.342,1104.9 352,1095.5C 351.479,1048.5 351.646,1001.5 352.5,954.5C 361.065,952.612 369.398,950.278 377.5,947.5 Z"/></g>
<g><path style="opacity:1" fill="#ebe3df" d="M 335.5,961.5 C 336.594,978.019 330.594,991.519 317.5,1002C 315.086,1003.88 312.419,1004.55 309.5,1004C 302.93,998.175 301.763,991.342 306,983.5C 309.5,978.667 313.667,974.5 318.5,971C 324.229,967.806 329.896,964.639 335.5,961.5 Z"/></g>
<g><path style="opacity:1" fill="#c8b4a7" d="M 345.5,958.5 C 345.56,957.957 345.893,957.624 346.5,957.5C 347.823,967.325 347.823,976.992 346.5,986.5C 346.827,976.985 346.494,967.652 345.5,958.5 Z"/></g>
<g><path style="opacity:1" fill="#d7d8d9" d="M 1609.5,1249.5 C 1611.5,1249.5 1613.5,1249.5 1615.5,1249.5C 1615.5,1301.83 1615.5,1354.17 1615.5,1406.5C 1613.5,1406.5 1611.5,1406.5 1609.5,1406.5C 1609.5,1354.17 1609.5,1301.83 1609.5,1249.5 Z"/></g>
<g><path style="opacity:1" fill="#ebebec" d="M 1615.5,1445.5 C 1615.5,1496.17 1615.5,1546.83 1615.5,1597.5C 1609.83,1597.5 1604.17,1597.5 1598.5,1597.5C 1599.26,1596.73 1600.26,1596.23 1601.5,1596C 1600.91,1595.54 1600.24,1595.37 1599.5,1595.5C 1600.5,1594.83 1601.5,1594.17 1602.5,1593.5C 1602.83,1593.5 1603.17,1593.5 1603.5,1593.5C 1604.31,1594.65 1605.31,1594.65 1606.5,1593.5C 1607.58,1592.33 1608.42,1591 1609,1589.5C 1609.5,1541.5 1609.67,1493.5 1609.5,1445.5C 1611.5,1445.5 1613.5,1445.5 1615.5,1445.5 Z"/></g>
<g><path style="opacity:1" fill="#fefefe" d="M 7.5,1593.5 C 539.167,1593.5 1070.83,1593.5 1602.5,1593.5C 1601.5,1594.17 1600.5,1594.83 1599.5,1595.5C 1069.83,1595.5 540.167,1595.5 10.5,1595.5C 10.1583,1594.66 9.49162,1594.33 8.5,1594.5C 7.83333,1594.5 7.5,1594.17 7.5,1593.5 Z"/></g>
<g><path style="opacity:1" fill="#e6e6e6" d="M 10.5,1595.5 C 540.167,1595.5 1069.83,1595.5 1599.5,1595.5C 1600.24,1595.37 1600.91,1595.54 1601.5,1596C 1600.26,1596.23 1599.26,1596.73 1598.5,1597.5C 1069.83,1597.5 541.167,1597.5 12.5,1597.5C 11.7375,1596.73 10.7375,1596.23 9.5,1596C 9.72845,1595.6 10.0618,1595.43 10.5,1595.5 Z"/></g>
</svg>
