<?xml version="1.0" encoding="UTF-8"?>
<svg version="1.1" viewBox="0 0 2048 2028" width="1240" height="1228" xmlns="http://www.w3.org/2000/svg">
<!-- <path transform="translate(0)" d="m0 0h2048v2028h-2048z" fill="#F2E8E0"/> -->
<path transform="translate(422,561)" d="m0 0 7 1 6 8 5 12 3 11 1 11-2 10-5 9-9 10-2 4 28 16 26 14 23 14 14 10 12 11 7 7 8 13 7 15 4 13 2 11 1 20-2 17-4 16-6 16-8 14-9 12-11 12-7 8-8 8-7 8-9 10-12 17-9 16-8 18-6 20-3 16 11 6 16 12 14 14 10 14 7 12 6 15 4 14 2 13v27l-3 21-6 28-12 42-1 6 11-3 45-7 42-5 54-4 44-2 44-1-1 5-17 1-63 2-54 4-46 5-44 7-15 3-2 1-5 22-1 6v24l2 20v23l-4 20-11 34v13l5 19 1 15-3 18-5 15-8 18-5 8h-3l-5-10-5-19-3-21-2-38v-40l2-114-9 4-1 15-4 15-7 14-9 10-7 6-6 3h-7l-8-6-5-8-1-8 3-10 7-10 10-9 13-8 16-8-1-9-8-16-9-12-10-7-16-8-26-8-76-17-21-6-17-7-15-9-9-8-9-13-4-11v-17l5-12 7-11 11-12 11-11 12-9 18-12 19-11 25-11 24-8 29-7 11-2-1-12-5-19-5-12-8-15-9-12-9-11-3-4v-3l4 1 8 8 13 17 11 21 6 18 4 23h17l18 2 15 4 7 3 2-14 6-21 5-12 11-21 12-17 9-11 11-12 9-9 7-8 9-10 12-17 8-17 5-17 2-12v-25l-4-18-7-18-9-14-11-12-12-10-19-12-21-12-27-15-16-10-4-3-5 2-17 10-26 13-23 13-16 10-11 9-13 13-7 11-6 12-4 14-1 7v11l3 17 5 15 7 13 7 9 9 10 11 9 16 8 13 3h18l19-5 19-8 2-2-11-8-10-10-9-14-5-10-5-17-1-6v-21l3-13 8-16 7-9 9-7 10-4 5-1h11l11 3 10 5 9 9 6 9 5 14 2 13v9l-3 18-6 16-7 12-9 11-9 9-11 8 2 2 13 3h23l5-1-1 5-10 2h-11l-12-2-10-3-4-2-16 8-14 5-14 3h-21l-15-4-16-8-11-9-8-8-9-13-8-16-5-17-2-14v-11l2-14 6-16 8-14 9-11 11-10 13-9 13-8 16-9 26-13 22-12 2-1-2-4-9-12-4-10v-14l4-13 9-17 6-5z" fill="#BB6432"/>
<path transform="translate(379,983)" d="m0 0 4 1v14l-2 16-5 16-6 12-1 4 3-1 6-10 5-15 2-11 2-26h27l19 4 10 4-1 24v13l3 87 1 43v60l-1 9-8 4h-2l-3-12-8-17-11-12-14-9-11-5-18-6-28-7-47-10-26-7-16-6-13-7-9-7-9-9-7-12-2-8v-9l4-12 7-11 12-14 12-11 19-14 24-14 21-10 25-9 23-6z" fill="#F2E8E0"/>
<path transform="translate(939,858)" d="m0 0h18l13 4 14 9 13 13 7 10 9 16 7 18 4 16 2 14v30l-5 25-7 19-10 19-7 9-9 10-10 8-12 6-12 3h-13l-13-3-12-6-12-11-7-7-10-15-9-19-5-15-4-21-1-9v-19l3-20 5-18 9-21 10-16 14-15 10-7 11-5z" fill="#F2E8E0"/>
<path transform="translate(571,850)" d="m0 0h22l4 8 18 50 14 38 11 30 14 38 19 52 5 12 4-10 17-46 54-147 9-24 1-1h22v242h-22v-213h-2l-3 10-21 57-14 39-20 54-15 41-5 12h-24l-4-8-16-44-18-49-21-57-17-46-3-7v63l-1 147-1 1h-7z" fill="#4D4C4D"/>
<path transform="translate(448,995)" d="m0 0 5 1 17 12 12 11 11 14 8 13 7 15 5 17 2 13v26l-4 25-10 40-9 31-7 3-29 8-6 1-1-88-1-42-2-47v-43l1-9z" fill="#F2E8E0"/>
<path transform="translate(939,849)" d="m0 0h17l16 3 15 6 10 6 10 8 9 8 10 13 11 20 6 16 4 18 2 14v22l-3 20-4 16-8 19-9 15-8 10-10 10-13 10-17 8-15 4-8 1h-14l-16-3-16-6-14-9-13-11-10-12-8-13-8-17-5-16-4-24v-24l4-26 6-18 8-16 9-14 11-12 12-10 13-8 17-6zm0 9-12 3-13 7-13 12-8 10-9 15-8 19-5 18-3 20v19l3 21 5 19 8 18 6 11 9 12 13 13 11 7 13 4 5 1h13l12-3 12-6 10-8 7-7 9-12 11-21 7-20 4-22v-30l-3-18-5-18-8-18-10-16-11-12-9-8-12-7-11-3z" fill="#4D4B4D"/>
<path transform="translate(1110,850)" d="m0 0h26l6 9 13 23 15 25 14 24 17 29 15 25 15 26 17 28 3 6 1-162 1-33h8v242h-8l-7-10-15-26-16-27-14-24-13-22-17-29-26-44-17-29-8-13-1 224h-9z" fill="#514D4D"/>
<path transform="translate(427,702)" d="m0 0 14 2 10 5 10 9 6 10 4 12 1 5v22l-4 15-5 11-6 10-8 10-13 13-7 5-6-1-13-11-9-11-6-9-5-11-4-15-1-7v-15l3-14 8-16 9-10 9-6 6-2z" fill="#F2E8E0"/>
<path transform="translate(1329,851)" d="m0 0h136l1 5-1 1-32 1-81 1v106l91 1v5l-2 2-89 1-1 109 122 1-1 7-56 1h-87z" fill="#4B4B4E"/>
<path transform="translate(486,1219)" d="m0 0h4l-2 11-3 16v27l2 21v18l-3 18-8 24-4 13v15l5 20v20l-4 17-10 24-2 4-3-1-5-19-3-18-2-22v-106l1-54 1-18 21-6z" fill="#F2E8E0"/>
<path transform="translate(422,561)" d="m0 0 7 1 6 8 5 12 3 11 1 11-2 10-5 9-9 10-2 4 28 16 26 14 23 14 14 10 12 11 7 7 8 13 7 15 4 13 2 11 1 20-2 17-2 3-1-8-1-29-4-18-7-18-9-14-11-12-12-10-19-12-21-12-27-15-16-10-4-3-5 2-17 10-26 13-23 13-16 10-11 9-13 13-7 11-6 12-4 14-1 7v11l3 17 5 15 7 13 7 9 9 10 11 9 16 8 13 3h18l19-5 19-8 2-2-11-8-10-10-9-14-5-10-5-17-1-6v-21l3-13 8-16 7-9 9-7 10-4 5-1h11l11 3 10 5 9 9 6 9 5 14 2 13v9l-3 18-6 16-7 12-9 11-9 9-11 8 2 2 13 3h23l5-1-1 5-10 2h-11l-12-2-10-3-4-2-16 8-14 5-14 3h-21l-15-4-16-8-11-9-8-8-9-13-8-16-5-17-2-14v-11l2-14 6-16 8-14 9-11 11-10 13-9 13-8 16-9 26-13 22-12 2-1-2-4-9-12-4-10v-14l4-13 9-17 6-5zm5 141-11 2-10 6-8 8-6 10-5 12-2 11v15l3 15 4 12 7 12 10 13 10 9 6 4 6-1 13-12 8-8 9-13 6-12 4-13 1-5v-22l-3-12-6-12-9-10-10-6-14-3z" fill="#BA6432"/>
<path transform="translate(1568,851)" d="m0 0h118l1 2-2 4-3 1-57 1-1 233h-22v-234h-61l-1-5 1-1z" fill="#4A4B4E"/>

<path transform="translate(517,1118)" d="m0 0h1v8l-5 26-9 35-6 20-1 6 11-3 45-7 42-5 54-4 44-2 44-1-1 5-17 1-63 2-54 4-46 5-44 7-15 3-2 1-5 22-1 6v24l2 20v23l-4 20-11 34v13l5 19 1 15-3 18-5 15-8 18-5 8h-3l-5-10-5-19-3-21-2-38v-40l1-19h1l1 16v13l1 3 1 16 1 32 3 30 5 22 2 7 2 1 3-9 8-19 4-17v-20l-5-20v-15l4-13 8-24 3-18v-18l-2-21v-27l4-21 2-6-33 9h-5l1-4 24-7 14-4 11-39 8-32 4-21z" fill="#B56333"/>
<path transform="translate(341,890)" d="m0 0 4 1 8 8 13 17 11 21 6 18 4 23 7 1v1l-6 1 12 1v1h-13v15l-2 17-4 15-6 12-5 5-2-1 1-4 7-14 4-14 2-16v-14l-13 2-25 6-27 9-24 11-18 10-12 8-12 9-10 9-7 6-9 11-7 11-4 12v9l3 10 7 11 10 10 13 8 16 7 24 7 40 9 32 7 24 7 16 7 14 9 9 9 6 10 6 13 1 8-5-2-4-11-7-12-7-9-10-7-16-8-26-8-76-17-21-6-17-7-15-9-9-8-9-13-4-11v-17l5-12 7-11 11-12 11-11 12-9 18-12 19-11 25-11 24-8 29-7 11-2-1-12-5-19-5-12-8-15-9-12-9-11-3-4z" fill="#BB6432"/>
<path transform="translate(1297,1161)" d="m0 0h6v60l-4 1-2-6-8 6-10 1-6-3-6-7-2-7v-9l3-10 5-6 4-2h11l6 4 3 3-1-12v-12z" fill="#504A48"/>
<path transform="translate(423,565)" d="m0 0 4 1 5 8 4 10 3 12v13l-6 12-9 10-5 1-9-12-4-9v-15l5-14 8-13z" fill="#F2E8E0"/>
<path transform="translate(784,1179)" d="m0 0 3 1 1 5 6-5 3-1h11l6 4 4 6 1 4v15l-3 7-4 5-9 3-9-2-5-4-1 24h-5l-1-1v-60z" fill="#282425"/>
<path transform="translate(430,1237)" d="m0 0h2v9l-4 16-8 16-9 10-9 6-4 1-7-4-4-6-1-10 5-10 9-10 11-8 12-7z" fill="#F2E8E0"/>
<path transform="translate(489,1287)" d="m0 0 2 4v23l-4 20-11 34v13l5 19 1 15-3 18-5 15-8 18-5 8h-3l-5-10-5-19-3-21-2-38v-40l1-19h1l1 16v13l1 3 1 16 1 32 3 30 5 22 2 7 2 1 3-9 8-19 4-17v-20l-5-20v-15l4-13 8-24 3-18 1-21z" fill="#B16234"/>
<path transform="translate(1568,851)" d="m0 0h118l1 2-2 4-3 1h-59l-18-1-1 4h-2v-3h-61l-1-5 1-1z" fill="#1F1C20"/>
<path transform="translate(909,1179)" d="m0 0h14l5 3 3 8v31l-4 1-1-1v-6l-8 6-4 2h-8l-5-3-4-6v-8l3-5 8-4 17-2-2-10h-14l-7 1 1-5z" fill="#2A2526"/>
<path transform="translate(1e3 1179)" d="m0 0h12l8 7 4 11-1 5h-30l3 10 4 4 3 1h11l8-2-1 4-4 3-4 1h-11l-8-4-6-8-1-3v-14l5-10z" fill="#242124"/>
<path transform="translate(1352,1084)" d="m0 0h121l-1 7h-102l-1-1-11-1-2-2h-2v-2z" fill="#131319"/>
<path transform="translate(1373,1183)" d="m0 0 7 2 5 5 1 4v14l-4 7-5 3h-8l-5-3-4-6v-15l3-6 5-4z" fill="#F2E8E0"/>
<path transform="translate(1330,852)" d="m0 0h136l-1 5-32 1-81 1h-3v-3l-18-1-1 4z" fill="#19181C"/>
<path transform="translate(1282,1183)" d="m0 0 7 1 5 4 3 8v10l-3 7-4 4-3 1h-7l-5-3-3-6v-16l4-7z" fill="#F2E8E0"/>
<path transform="translate(800,1183)" d="m0 0 6 1 5 5 2 5v13l-3 7-5 4h-8l-6-4-3-9v-9l2-7 5-4z" fill="#F2E8E0"/>
<path transform="translate(1351,966)" d="m0 0h92v5l-2 2h-89l-1-2z" fill="#15161C"/>
<path transform="translate(1366,1179)" d="m0 0h14l6 4 5 7 1 3v14l-3 7-5 6-8 3h-7l-8-4-5-6-2-4v-17l4-8zm7 4-7 2-5 6-1 3v15l6 8 3 1h8l6-4 3-6v-14l-3-7-4-3z" fill="#252123"/>
<path transform="translate(1211,1179)" d="m0 0h3l1 33 2 4 3 1h8l5-3h2l1-5 1-29 5-1 2 1v41l-5 1-2-6-7 6-10 1-6-2-5-5-1-3v-33z" fill="#2A2628"/>
<path transform="translate(1059,1178)" d="m0 0 11 2 3 3-3 3-7-1h-10l-3 1v5l9 6 10 5 5 6-1 7-5 5-7 3h-10l-8-3v-5l8 2h11l5-4v-5l-16-8-6-5-1-2v-6l6-7z" fill="#252022"/>
<path transform="translate(1129,1179)" d="m0 0h14l6 2v4h-19l-3 1-1 6 20 10 5 6-1 7-4 5-7 3h-10l-9-3 1-5 7 2h12l4-4v-5l-19-10-4-5v-6l3-5z" fill="#262022"/>
<path transform="translate(1174,1170)" d="m0 0h4v9l12 1v4l-1 1h-11l1 32h12l-1 5-3 1h-8l-5-3-2-4-1-7v-19l1-5h-7l1-4 6-3 1-7z" fill="#282425"/>
<path transform="translate(959,1169)" d="m0 0 2 1v9l12 1v4l-1 1h-11l1 28 1 3 2 1h9l-1 4-2 2h-8l-5-3-3-4-1-8v-23h-5v-4l6-4 2-7z" fill="#252224"/>
<path transform="translate(875,1160)" d="m0 0 2 2v23l-1 37h-6v-61z" fill="#605049"/>
<path transform="translate(784,1179)" d="m0 0 3 1 1 5 3-3 2 1v3l-4 5-2-1-2 6v10l2 1 2 8-1 26h-5l-1-1v-60z" fill="#7B5642"/>
<path transform="translate(917,1200)" d="m0 0h8v9l-7 8-3 1h-8l-4-5v-6l5-5z" fill="#F2E8E0"/>
<path transform="translate(726,1191)" d="m0 0h11l-1 5-17 1-39 1h-16l1-2 11-1-6-1v-1z" fill="#BC6532"/>
<path transform="translate(1241,1179)" d="m0 0 3 1v41l-5 1-2-9-2-1 1-3 1-29z" fill="#514642"/>
<path transform="translate(842,1179)" d="m0 0h5v42l-1 1h-5l-1-1v-41z" fill="#554E4C"/>
<path transform="translate(1327,1179)" d="m0 0h5v43h-6v-42z" fill="#4B4C4F"/>
<path transform="translate(1008,1183)" d="m0 0 7 3 4 6-1 5h-23l1-6 4-5 3-2z" fill="#F2E8E0"/>
<path transform="translate(730,940)" d="m0 0 1 3-18 50-7 19-5 14-4 10-7 19-3 6-1-4 20-54 18-49 5-13z" fill="#2D2524"/>
<path transform="translate(990,1191)" d="m0 0 2 3v10-2l1-3 2 3 3 10 4 4 3 1h11l8-2-1 4-4 3-4 1h-11l-8-4-6-8-1-3v-14z" fill="#292628"/>
<path transform="translate(487,1230)" d="m0 0 2 3 1 8-1 6v24l1 16-1 5-3 2-2-21v-27z" fill="#BA6432"/>
<path transform="translate(1277,1179)" d="m0 0h11l6 4 3 3v2h2l2 6v11l-2 6h-1l-1-22-4-1-4-3-7-1-6 3-3 6h-2l-2 15h-1v-13l4-11z" fill="#1C1B20"/>
<path transform="translate(959,1169)" d="m0 0 2 1v9l2 2-6 1v21l1 12 4 7-4-2-3-4-1-8v-23h-5v-4l6-4 2-7z" fill="#342E2E"/>
<path transform="translate(1273,1181)" d="m0 0 2 1-3 4-3 9v4l2-6h1l1 16 1 4-1 2 3 6-4-2-5-6-2-7v-9l3-10z" fill="#524C4A"/>
<path transform="translate(444,1327)" d="m0 0h1l1 16v13l1 3v16l-1 11-1 15h-1l-1-15v-40z" fill="#665247"/>
<path transform="translate(478,1405)" d="m0 0h1l1 5h1v13l-4 17-5 12-3-1 1-7 5-16 2-9z" fill="#665247"/>
<path transform="translate(481,1216)" d="m0 0 9 1-1 2-32 9h-5l1-4 24-7z" fill="#8F5B3D"/>
<path transform="translate(489,1287)" d="m0 0 2 4v23l-2 12-2 1v-36z" fill="#655148"/>
<path transform="translate(707 1e3)" d="m0 0 1 2-7 20-4 10-7 19-3 6-1-4 19-51z" fill="#292323"/>
<path transform="translate(486,1312)" d="m0 0 2 4v14l-6 19-3-1 1-8 4-14z" fill="#B56333"/>
<path transform="translate(1273,1213)" d="m0 0h2l3 3 2 1h7l5-3 5-1v3l-8 6-10 1-3-1-4-8z" fill="#2F2625"/>
<path transform="translate(1326,1180)" d="m0 0 3 2v36l-3 1z" fill="#705445"/>
<path transform="translate(840,1180)" d="m0 0 3 3v33l-2 5h-1z" fill="#745544"/>
<path transform="translate(553,761)" d="m0 0h1l2 13h2l-1 18-2 9h-1l-1-8z" fill="#625148"/>
<path transform="translate(784,1179)" d="m0 0 3 1 1 5 3-3 2 1v3l-4 5-2-1-2 6-1 16h-1v-32z" fill="#443F3F"/>
<path transform="translate(1165,1184)" d="m0 0h8l1 4 1 28 2 5-3-1-2-4-1-7v-19l1-5h-7z" fill="#7C5642"/>
<path transform="translate(468,1449)" d="m0 0h3l1 4-8 16-2 2h-3v-4h2l3-9z" fill="#B76333"/>
<path transform="translate(649,1194)" d="m0 0h36v1l-20 2h-24l4-2z" fill="#5D504A"/>
<path transform="translate(1297,1161)" d="m0 0h4v23l-2 2v-2h-2l-1-10v-12z" fill="#13141A"/>
<path transform="translate(787,1189)" d="m0 0 2 1v22l-2-1-1-4v6l-2-1v-16z" fill="#1D1C20"/>
<path transform="translate(945,856)" d="m0 0h9l11 2 15 8 12 11 3 4-4-2-8-8-13-8-13-4-12-2z" fill="#292528"/>
<path transform="translate(954,1184)" d="m0 0h2l2 31 4 7-4-2-3-4-1-8z" fill="#B96432"/>
<path transform="translate(1208,1182)" d="m0 0 2 1 1 26 2 11-4-4-1-3z" fill="#7D5741"/>
<path transform="translate(1273,1181)" d="m0 0 2 1-3 4-3 9-1 13-3-2v-9l3-10z" fill="#644F45"/>
<path transform="translate(422,561)" d="m0 0 7 1v3l-12 1-2 4-7 13-1-3 7-13 6-5z" fill="#715445"/>
<path transform="translate(786,1219)" d="m0 0h1l1 8v13h-4v-18z" fill="#121319"/>
<path transform="translate(990,1191)" d="m0 0 2 3v10l3 9 3 6-4-2-4-6-1-3v-14z" fill="#675247"/>
<path transform="translate(841,1180)" d="m0 0h5l-1 5v36h-4l1-5v-33z" fill="#121319"/>
<path transform="translate(1327,1179)" d="m0 0h5l-1 6v36l-4-1 1-2v-36z" fill="#18181D"/>
<path transform="translate(1358,1184)" d="m0 0h2l-3 10-1 5v7l1 7-3-4v-17z" fill="#685247"/>
<path transform="translate(481,1216)" d="m0 0 9 1-1 2-10 3-4-1 2-4z" fill="#625148"/>
<path transform="translate(730,940)" d="m0 0 1 3-8 22-3 2 3-10 6-16z" fill="#302726"/>
<path transform="translate(811,1189)" d="m0 0h2l2 5v11l-2 9h-3l2-7v-13z" fill="#6E5345"/>
<path transform="translate(1327,1164)" d="m0 0h5l1 5-2 3-5-1v-6z" fill="#2F2726"/>
<path transform="translate(939,849)" d="m0 0h17l4 2-26 1 2-2z" fill="#342A28"/>
<path transform="translate(473,838)" d="m0 0h2l-1 5-2 1h-13v-1l-7-1v-1h19l2-1z" fill="#605049"/>
<path transform="translate(841,1164)" d="m0 0h5l1 1v6l-1 1h-5z" fill="#272427"/>
<path transform="translate(1298,1193)" d="m0 0 3 1v11l-2 6h-1z" fill="#121319"/>
<path transform="translate(1296,1162)" d="m0 0 3 3v11l-1 8h-1l-1-10z" fill="#715445"/>
<path transform="translate(873,1190)" d="m0 0h1l1 31h-4l1-7z" fill="#121319"/>
<path transform="translate(434,1235)" d="m0 0 2 3-1 13-3-1 1-13z" fill="#615149"/>
<path transform="translate(911,1075)" d="m0 0 4 1 11 6 7 3-4 1-10-4-8-6z" fill="#312929"/>
<path transform="translate(459,1222)" d="m0 0 3 1-2 4-8 1 1-4z" fill="#655148"/>
<path transform="translate(1253,851)" d="m0 0h7l-2 5h-3l-2 4z" fill="#121319"/>
<path transform="translate(926,1212)" d="m0 0 4 2v8l-4-1z" fill="#2A2628"/>
<path transform="translate(713,988)" d="m0 0 1 2-5 13-3 2 3-10 2-6z" fill="#2B2525"/>
<path transform="translate(935,857)" d="m0 0h8l-4 2-12 3-4-1 6-3z" fill="#272325"/>
<path transform="translate(422,561)" d="m0 0 7 1v3l-8 1-2-2z" fill="#5E504A"/>
<path transform="translate(1267,1195)" d="m0 0h1v13l-3-2v-9z" fill="#695247"/>
<path transform="translate(956,1203)" d="m0 0h1l1 12 4 7-4-2-2-2z" fill="#5A4F4B"/>
<path transform="translate(871,1161)" d="m0 0h4l-1 22h-1l-1-18z" fill="#121319"/>
<path transform="translate(517,1118)" d="m0 0h1v8l-2 8h-1v-15z" fill="#715445"/>
<path transform="translate(457,1465)" d="m0 0 2 1 2 3 1 3-1 2h-3l-2-6z" fill="#5F5049"/>
<path transform="translate(480,1340)" d="m0 0h2v2l2 1-2 6-3-1z" fill="#925B3C"/>
<path transform="translate(791,1182)" d="m0 0 2 1v3l-4 5-2-4z" fill="#313237"/>
<path transform="translate(707,1022)" d="m0 0 1 3-5 12-1-4 4-10z" fill="#222023"/>
<path transform="translate(707 1e3)" d="m0 0 1 2-4 11h-2l1-6 3-6z" fill="#201E21"/>
<path transform="translate(897,1206)" d="m0 0 2 2 2 5-1 5-3-4z" fill="#584E4B"/>
</svg>
